# xmcd
#
# Track frame offsets: 
#        150
#        18155
#        32045
#        45837
#        62420
#        80402
#        100625
#        119600
#        136410
#        156070
#        174207
#        187287
#        208495
#        220832
#
# Disc length: 3126 seconds
#
# Revision: 0
# Processed by: cddbd v1.5.2PL0 Copyright (c) Steve Scherf et al.
# Submitted via: ExactAudioCopyFreeDBPlugin 1.0
#
DISCID=b90c340e
DTITLE=Dimension Latina - Las Estrellas de la Dimension Latina
DYEAR=1999
DGENRE=Salsa
TTITLE0=Estela Mayombe
TTITLE1=Dormir Contigo
TTITLE2=Dame Tu Querer
TTITLE3=Sin tu Cariño
TTITLE4=Cantares
TTITLE5=Dolor Cobarde
TTITLE6=La Batidora
TTITLE7=Lloraras
TTITLE8=Mayeya
TTITLE9=El Frutero
TTITLE10=La Piragua
TTITLE11=Para tu Altar
TTITLE12=Viviendo del Cuento
TTITLE13=Sun Sun Babae
EXTD=
EXTT0=
EXTT1=
EXTT2=
EXTT3=
EXTT4=
EXTT5=
EXTT6=
EXTT7=
EXTT8=
EXTT9=
EXTT10=
EXTT11=
EXTT12=
EXTT13=
PLAYORDER=
